<svg xmlns="http://www.w3.org/2000/svg" viewBox="0 0 566.93 368.79">
  <defs>
    <style>
      .cls-1, .cls-2, .cls-5 {
        fill: none;
      }

      .cls-1, .cls-2, .cls-3, .cls-4 {
        stroke: #fff;
      }

      .cls-1, .cls-2, .cls-3, .cls-5 {
        stroke-miterlimit: 10;
      }

      .cls-1 {
        stroke-width: 4px;
      }

      .cls-2, .cls-5 {
        stroke-width: 2px;
      }

      .cls-3 {
        font-size: 140px;
        font-family: MyriadPro-Regular, Myriad Pro;
      }

      .cls-3, .cls-4 {
        fill: #fff;
      }

      .cls-4 {
        font-size: 33.35px;
        font-family: CourierNewPSMT, Courier New;
      }

      .cls-5 {
        stroke: #e3b069;
        stroke-linecap: round;
      }
    </style>
  </defs>
  <title>Artboard 6</title>
  <g id="option_6" data-name="option 6">
    <g>
      <path class="cls-1" d="M145.33,64.65c-2.06,61.45,20.17,122.69,59.55,180.46.46.68,2.46.37,2.46-.7,0,0-57.4-179.23-58.36-181.43C148.34,61.54,145.41,62.25,145.33,64.65Z"/>
      <path class="cls-1" d="M156.48,149.92s-10.67.77-14.18,10.28l-33.06,98.45c-4.57,13.71,2.55,19.77,11.61,19.69H208.4c9.34,0-16.78-3.27-51.38-5.83L121.9,269.9c-5.45-.35-7.21-2.28-4.57-11.25l30-89.21C150.69,158,160,158.52,160,158.52"/>
      <line class="cls-2" x1="203.72" y1="245.39" x2="144.69" y2="62.49"/>
    </g>
    <text class="cls-3" transform="translate(244.13 227.46)">SR</text>
    <text class="cls-4" transform="translate(224.89 278.19)">{developer}</text>
    <g>
      <line class="cls-5" y1="184.55" x2="70.96" y2="184.55"/>
      <line class="cls-5" x1="566.93" y1="184.55" x2="496.21" y2="184.55"/>
    </g>
  </g>
</svg>
